HIERARCHY
ROOT hip
{
  OFFSET 0 0 0
  CHANNELS 6 Xposition Yposition Zposition Zrotation Yrotation Xrotation
  JOINT abdomen
  {
    OFFSET 0 20.6881 -0.73152
    CHANNELS 3 Zrotation Xrotation Yrotation
    JOINT chest
    {
      OFFSET 0 11.7043 -0.48768
      CHANNELS 3 Zrotation Xrotation Yrotation
      JOINT neck
      {
        OFFSET 0 22.1894 -2.19456
        CHANNELS 3 Zrotation Xrotation Yrotation
        JOINT head
        {
          OFFSET -0.24384 7.07133 1.2192
          CHANNELS 3 Zrotation Xrotation Yrotation
          JOINT leftEye
          {
            OFFSET 4.14528 8.04674 8.04672
            CHANNELS 3 Zrotation Xrotation Yrotation
            End Site
            {
              OFFSET 1 0 0
            }
          }
          JOINT rightEye
          {
            OFFSET -3.6576 8.04674 8.04672
            CHANNELS 3 Zrotation Xrotation Yrotation
            End Site
            {
              OFFSET 1 0 0
            }
          }
        }
      }
      JOINT rCollar
      {
        OFFSET -2.68224 19.2634 -4.8768
        CHANNELS 3 Zrotation Xrotation Yrotation
        JOINT rShldr
        {
          OFFSET -8.77824 -1.95073 1.46304
          CHANNELS 3 Zrotation Xrotation Yrotation
          JOINT rForeArm
          {
            OFFSET -28.1742 -1.7115 0.48768
            CHANNELS 3 Zrotation Xrotation Yrotation
            JOINT rHand
            {
              OFFSET -22.5879 0.773209 7.07136
              CHANNELS 3 Zrotation Xrotation Yrotation
              JOINT rThumb1
              {
                OFFSET -1.2192 -0.487915 3.41376
                CHANNELS 3 Zrotation Xrotation Yrotation
                JOINT rThumb2
                {
                  OFFSET -3.37035 -0.52449 3.41376
                  CHANNELS 3 Zrotation Xrotation Yrotation
                  End Site
                  {
                    OFFSET -1.78271 -1.18214 1.43049
                  }
                }
              }
              JOINT rIndex1
              {
                OFFSET -7.75947 0.938293 5.60832
                CHANNELS 3 Zrotation Xrotation Yrotation
                JOINT rIndex2
                {
                  OFFSET -2.54057 -0.884171 1.56538
                  CHANNELS 3 Zrotation Xrotation Yrotation
                  End Site
                  {
                    OFFSET -1.62519 -0.234802 1.16502
                  }
                }
              }
              JOINT rMid1
              {
                OFFSET -8.24714 1.18213 3.41376
                CHANNELS 3 Zrotation Xrotation Yrotation
                JOINT rMid2
                {
                  OFFSET -3.10165 -0.590103 1.0647
                  CHANNELS 3 Zrotation Xrotation Yrotation
                  End Site
                  {
                    OFFSET -2.48547 -0.328903 0.83742
                  }
                }
              }
              JOINT rRing1
              {
                OFFSET -8.82822 0.546677 1.51678
                CHANNELS 3 Zrotation Xrotation Yrotation
                JOINT rRing2
                {
                  OFFSET -2.60934 -0.819778 -0.0198488
                  CHANNELS 3 Zrotation Xrotation Yrotation
                  End Site
                  {
                    OFFSET -2.33842 -0.294052 0.168128
                  }
                }
              }
              JOINT rPinky1
              {
                OFFSET -8.27202 -0.0477905 -0.4584
                CHANNELS 3 Zrotation Xrotation Yrotation
                JOINT rPinky2
                {
                  OFFSET -1.82734 -0.647385 -0.700984
                  CHANNELS 3 Zrotation Xrotation Yrotation
                  End Site
                  {
                    OFFSET -1.69225 -0.51767 -0.607171
                  }
                }
              }
            }
          }
        }
      }
      JOINT lCollar
      {
        OFFSET 2.68224 19.2634 -4.8768
        CHANNELS 3 Zrotation Xrotation Yrotation
        JOINT lShldr
        {
          OFFSET 8.77824 -1.95073 1.46304
          CHANNELS 3 Zrotation Xrotation Yrotation
          JOINT lForeArm
          {
            OFFSET 28.1742 -1.7115 0.48768
            CHANNELS 3 Zrotation Xrotation Yrotation
            JOINT lHand
            {
              OFFSET 22.5879 0.773209 7.07136
              CHANNELS 3 Zrotation Xrotation Yrotation
              JOINT lThumb1
              {
                OFFSET 1.2192 -0.487915 3.41376
                CHANNELS 3 Zrotation Xrotation Yrotation
                JOINT lThumb2
                {
                  OFFSET 3.37035 -0.52449 3.41376
                  CHANNELS 3 Zrotation Xrotation Yrotation
                  End Site
                  {
                    OFFSET 1.78271 -1.18214 1.43049
                  }
                }
              }
              JOINT lIndex1
              {
                OFFSET 7.75947 0.938293 5.60832
                CHANNELS 3 Zrotation Xrotation Yrotation
                JOINT lIndex2
                {
                  OFFSET 2.54057 -0.884171 1.56538
                  CHANNELS 3 Zrotation Xrotation Yrotation
                  End Site
                  {
                    OFFSET 1.62519 -0.234802 1.16502
                  }
                }
              }
              JOINT lMid1
              {
                OFFSET 8.24714 1.18213 3.41376
                CHANNELS 3 Zrotation Xrotation Yrotation
                JOINT lMid2
                {
                  OFFSET 3.10165 -0.590103 1.0647
                  CHANNELS 3 Zrotation Xrotation Yrotation
                  End Site
                  {
                    OFFSET 2.48547 -0.328903 0.83742
                  }
                }
              }
              JOINT lRing1
              {
                OFFSET 8.82822 0.546677 1.51678
                CHANNELS 3 Zrotation Xrotation Yrotation
                JOINT lRing2
                {
                  OFFSET 2.60934 -0.819778 -0.0198488
                  CHANNELS 3 Zrotation Xrotation Yrotation
                  End Site
                  {
                    OFFSET 2.33842 -0.294052 0.168128
                  }
                }
              }
              JOINT lPinky1
              {
                OFFSET 8.27202 -0.0477905 -0.4584
                CHANNELS 3 Zrotation Xrotation Yrotation
                JOINT lPinky2
                {
                  OFFSET 1.82734 -0.647385 -0.700984
                  CHANNELS 3 Zrotation Xrotation Yrotation
                  End Site
                  {
                    OFFSET 1.69225 -0.51767 -0.607171
                  }
                }
              }
            }
          }
        }
      }
    }
  }
  JOINT rButtock
  {
    OFFSET -8.77824 4.35084 1.2192
    CHANNELS 3 Zrotation Xrotation Yrotation
    JOINT rThigh
    {
      OFFSET 0 -1.70687 -2.19456
      CHANNELS 3 Zrotation Xrotation Yrotation
      JOINT rShin
      {
        OFFSET 0 -36.8199 0.73152
        CHANNELS 3 Zrotation Xrotation Yrotation
        JOINT rFoot
        {
          OFFSET 0.73152 -45.1104 -5.12064
          CHANNELS 3 Zrotation Xrotation Yrotation
          End Site
          {
            OFFSET -1.1221 -3.69964 12.103
          }
        }
      }
    }
  }
  JOINT lButtock
  {
    OFFSET 8.77824 4.35084 1.2192
    CHANNELS 3 Zrotation Xrotation Yrotation
    JOINT lThigh
    {
      OFFSET 0 -1.70687 -2.19456
      CHANNELS 3 Zrotation Xrotation Yrotation
      JOINT lShin
      {
        OFFSET 0 -36.8199 0.73152
        CHANNELS 3 Zrotation Xrotation Yrotation
        JOINT lFoot
        {
          OFFSET -0.73152 -45.1104 -5.12064
          CHANNELS 3 Zrotation Xrotation Yrotation
          End Site
          {
            OFFSET 1.1221 -3.69964 12.103
          }
        }
      }
    }
  }
}
MOTION
Frames:	5
Frame Time:	0.00833333
3.3345 84.3996 -70.0802 0.0 0.0 0.0 -0.991226 -0.00434165 -0.0274292 -0.27343 -0.00447545 -0.0473708 -1.63699e-14 7.95139e-16 1.49088e-16 -4.92706e-14 9.54166e-15 4.67455e-16 -0.0 0.0 0.0 -0.0 0.0 0.0 -8.10215e-15 -1.3977e-17 2.48481e-16 -1.71815e-13 -8.51047e-16 1.78906e-15 -2.97511e-12 8.78032e-13 7.31528e-14 -3.40641e-11 -9.53048e-13 2.13097e-13 -8.03492e-11 -1.5569e-13 6.42472e-13 -1.38763e-10 -2.67167e-13 1.11956e-12 -8.03436e-11 -1.53859e-13 6.36111e-13 7.73091 5.47488 0.417314 -8.03493e-11 -1.55549e-13 6.52014e-13 2.90554 0.965183 0.102902 -8.03412e-11 -1.5535e-13 6.46448e-13 10.2786 0.731801 0.0259123 -8.03559e-11 -1.51871e-13 6.52014e-13 2.22167 -0.733487 -0.20892 -8.29812e-15 -1.47535e-17 -4.96962e-17 -1.74965e-13 -6.4605e-16 0.0 -2.98147e-12 -8.97712e-13 2.8625e-14 -3.40683e-11 8.41629e-13 2.67167e-13 -8.03629e-11 -1.1804e-13 6.45653e-13 -1.38778e-10 -2.03556e-13 1.11717e-12 -8.03698e-11 -1.1609e-13 6.45653e-13 -7.73091 5.47488 -0.417314 -8.03632e-11 -1.17879e-13 6.48833e-13 -2.90554 0.965183 -0.102902 -8.03747e-11 -1.17979e-13 6.44857e-13 -10.2786 0.731801 -0.0259123 -8.03581e-11 -1.17283e-13 6.3293e-13 -2.22167 -0.733487 0.20892 -2.03217e-16 0.0 -3.88251e-19 -0.253771 -1.9193 -0.0128552 -0.00928935 -2.07855 -0.0767347 -0.497383 3.99655 0.138112 2.03217e-16 0.0 3.88251e-19 -1.25487 -5.46677 0.109736 -9.50968e-05 4.34723 -0.0243742 0.511595 1.11837 -0.0811187
2.75866 83.0609 -71.464 -1.9668 -1.4297 5.6498 -0.483248 -0.591204 -0.034692 0.0456754 0.853267 -0.0613637 -0.567482 0.186692 -0.0184571 0.466017 -2.49793 0.151257 -0.0 0.0 0.0 -0.0 0.0 0.0 -2.74973e-15 7.0291e-14 -2.41182e-14 21.7451 2.52213 2.03781 -3.41912 -1.42376 5.4742 0.1679 9.11097 1.22277 2.7824e-10 -1.3135e-10 -1.99084e-10 4.74263e-10 -2.16881e-10 -3.51772e-10 2.78248e-10 -1.3135e-10 -1.99084e-10 7.73091 5.47488 0.417314 2.78242e-10 -1.31352e-10 -1.99073e-10 2.90554 0.965183 0.102902 2.78247e-10 -1.31351e-10 -1.99078e-10 10.2786 0.731801 0.0259123 2.78234e-10 -1.31347e-10 -1.99073e-10 2.22167 -0.733487 -0.20892 -2.85991e-15 7.02913e-14 -2.43472e-14 -21.8145 6.85793 -2.91507 2.43226 -0.893207 -3.99808 -3.69323e-05 -0.146774 0.0206276 -1.23188e-10 2.87783e-10 3.15616e-10 -2.11944e-10 4.97874e-10 5.44694e-10 -1.23194e-10 2.87783e-10 3.15616e-10 -7.73091 5.47488 -0.417314 -1.23188e-10 2.87782e-10 3.15618e-10 -2.90554 0.965183 -0.102902 -1.23198e-10 2.87782e-10 3.15614e-10 -10.2786 0.731801 -0.0259123 -1.23183e-10 2.87783e-10 3.15605e-10 -2.22167 -0.733487 0.20892 -2.03217e-16 0.0 -3.88251e-19 -0.436534 -5.16525 -1.02203 -0.00805625 3.88029 0.0248968 -0.531478 -0.0265986 -0.586299 2.03217e-16 0.0 3.88251e-19 -0.0210896 -8.14755 2.04604 -0.0119591 9.29079 -0.10454 0.688936 -1.7472 2.19959
2.75212 83.0607 -71.4647 -1.9968 -1.428 5.6538 0.0531538 -1.21175 -0.0426153 0.383955 1.76013 -0.0762076 -1.16713 0.384613 -0.0377696 0.972246 -5.14051 0.312416 -0.0 0.0 0.0 -0.0 0.0 0.0 2.49426e-15 1.48634e-13 -5.15101e-14 44.5373 5.17777 4.2043 -6.73954 -2.88565 11.2724 -0.0988439 18.7279 2.62255 6.73529e-10 -2.79575e-10 -4.14918e-10 1.15013e-09 -4.61951e-10 -7.3332e-10 6.7354e-10 -2.79577e-10 -4.14911e-10 7.73091 5.47488 0.417314 6.73533e-10 -2.79579e-10 -4.14907e-10 2.90554 0.965183 0.102902 6.73535e-10 -2.79579e-10 -4.14911e-10 10.2786 0.731801 0.0259123 6.73523e-10 -2.79574e-10 -4.14907e-10 2.22167 -0.733487 -0.20892 2.47551e-15 1.48636e-13 -5.16654e-14 -44.0977 14.0437 -6.13672 4.86701 -1.82229 -8.22556 4.24534e-05 -0.295242 0.0414938 -1.68477e-10 6.06966e-10 6.61379e-10 -2.89285e-10 1.05005e-09 1.14139e-09 -1.68482e-10 6.06965e-10 6.6138e-10 -7.73091 5.47488 -0.417314 -1.68477e-10 6.06965e-10 6.6138e-10 -2.90554 0.965183 -0.102902 -1.68486e-10 6.06964e-10 6.61377e-10 -10.2786 0.731801 -0.0259123 -1.68472e-10 6.06966e-10 6.6137e-10 -2.22167 -0.733487 0.20892 -2.03217e-16 0.0 -3.88251e-19 -0.75528 -8.5922 -2.10418 -0.029961 10.1784 0.134258 -0.678235 -4.27799 -1.35532 2.03217e-16 0.0 3.88251e-19 1.48368 -10.9645 4.12617 -0.00895774 14.5168 -0.192761 1.12495 -4.76373 4.62469
2.76044 83.0601 -71.4646 -1.9655 -1.4078 5.6529 0.532261 -1.76493 -0.0492356 0.685145 2.56875 -0.0894189 -1.70208 0.560077 -0.0553737 1.43791 -7.49357 0.457246 -0.0 0.0 0.0 -0.0 0.0 0.0 7.9551e-15 2.10901e-13 -7.28515e-14 64.6942 7.52795 6.1608 -9.45183 -4.1156 16.4612 -0.786027 27.2799 4.07601 9.95419e-10 -3.93737e-10 -5.98536e-10 1.70031e-09 -6.5011e-10 -1.05755e-09 9.95433e-10 -3.93742e-10 -5.98523e-10 7.73091 5.47488 0.417314 9.95424e-10 -3.93744e-10 -5.98524e-10 2.90554 0.965183 0.102902 9.95424e-10 -3.93743e-10 -5.98528e-10 10.2786 0.731801 0.0259123 9.95413e-10 -3.93738e-10 -5.98524e-10 2.22167 -0.733487 -0.20892 8.01651e-15 2.10903e-13 -7.29423e-14 -63.241 20.3536 -9.26571 6.92551 -2.62749 -12.0056 0.00020626 -0.440322 0.0618844 -2.08839e-10 8.63584e-10 9.45556e-10 -3.58275e-10 1.49403e-09 1.63185e-09 -2.08843e-10 8.63582e-10 9.45558e-10 -7.73091 5.47488 -0.417314 -2.08838e-10 8.63582e-10 9.45557e-10 -2.90554 0.965183 -0.102902 -2.08845e-10 8.63581e-10 9.45554e-10 -10.2786 0.731801 -0.0259123 -2.08832e-10 8.63584e-10 9.45549e-10 -2.22167 -0.733487 0.20892 -2.03217e-16 0.0 -3.88251e-19 -1.15137 -11.6431 -3.09161 -0.0705787 15.7979 0.236833 -0.906603 -8.06779 -2.05479 2.03217e-16 0.0 3.88251e-19 3.00333 -13.4525 6.02352 0.00811684 19.1777 -0.276227 1.73092 -7.42992 6.81539
2.7573 83.0606 -71.4626 -1.9797 -1.4076 5.6438 0.868469 -2.14969 -0.052583 0.892714 3.13178 -0.0984904 -2.07559 0.6794 -0.0687048 1.77374 -9.12303 0.557917 -0.0 0.0 0.0 -0.0 0.0 0.0 1.39581e-14 2.32974e-13 -7.90666e-14 78.6449 9.15105 7.54724 -11.2078 -4.91403 20.0895 -1.57622 33.2193 5.28068 1.13381e-09 -4.22743e-10 -7.01611e-10 1.93631e-09 -6.95994e-10 -1.23851e-09 1.13383e-09 -4.22749e-10 -7.01595e-10 7.73091 5.47488 0.417314 1.13382e-09 -4.22751e-10 -7.01599e-10 2.90554 0.965183 0.102902 1.13382e-09 -4.2275e-10 -7.01603e-10 10.2786 0.731801 0.0259123 1.13381e-09 -4.22745e-10 -7.01599e-10 2.22167 -0.733487 -0.20892 1.40715e-14 2.32978e-13 -7.91163e-14 -76.1232 24.682 -11.6705 8.30344 -3.17238 -14.6562 0.000408245 -0.57693 0.081085 -2.3688e-10 9.63788e-10 1.07577e-09 -4.06389e-10 1.66749e-09 1.85673e-09 -2.36883e-10 9.63785e-10 1.07577e-09 -7.73091 5.47488 -0.417314 -2.3688e-10 9.63785e-10 1.07577e-09 -2.90554 0.965183 -0.102902 -2.36886e-10 9.63784e-10 1.07577e-09 -10.2786 0.731801 -0.0259123 -2.36874e-10 9.63788e-10 1.07576e-09 -2.22167 -0.733487 0.20892 -2.03217e-16 0.0 -3.88251e-19 -1.49214 -13.7669 -3.79628 -0.111622 19.721 0.313089 -1.12207 -10.7091 -2.55608 2.03217e-16 0.0 3.88251e-19 4.16375 -15.1671 7.37699 0.0286519 22.4259 -0.33787 2.27554 -9.26791 8.36484
